<svg width="20" height="18" viewBox="0 0 20 18" fill="none" xmlns="http://www.w3.org/2000/svg">
<path d="M18.8687 6.28438C18.3856 5.14078 17.6852 4.10179 16.8062 3.225C15.9295 2.34609 14.8905 1.64565 13.7469 1.1625C12.5588 0.659766 11.2998 0.40625 10 0.40625C8.7002 0.40625 7.44121 0.659766 6.25313 1.1625C5.10953 1.64565 4.07054 2.34609 3.19375 3.225C2.31484 4.10179 1.6144 5.14078 1.13125 6.28438C0.628516 7.47246 0.375 8.73145 0.375 10.0312C0.375 12.8822 1.62754 15.5678 3.81035 17.4025L3.84688 17.4326C3.97148 17.5357 4.12832 17.5938 4.28945 17.5938H15.7127C15.8738 17.5938 16.0307 17.5357 16.1553 17.4326L16.1918 17.4025C18.3725 15.5678 19.625 12.8822 19.625 10.0312C19.625 8.73145 19.3693 7.47246 18.8687 6.28438ZM15.3582 15.9609H4.6418C3.81163 15.2124 3.14813 14.2977 2.69436 13.2761C2.24059 12.2546 2.00668 11.149 2.00781 10.0312C2.00781 7.8957 2.83926 5.88906 4.34961 4.38086C5.85996 2.87051 7.8666 2.03906 10 2.03906C12.1355 2.03906 14.1422 2.87051 15.6504 4.38086C17.1607 5.89121 17.9922 7.89785 17.9922 10.0312C17.9922 12.3 17.0361 14.4463 15.3582 15.9609ZM12.3955 7.05566C12.3632 7.02368 12.3196 7.00573 12.2741 7.00573C12.2287 7.00573 12.185 7.02368 12.1527 7.05566L10.3373 8.87109C9.93555 8.76367 9.49082 8.8668 9.175 9.18262C9.06314 9.29427 8.97439 9.42688 8.91384 9.57287C8.85329 9.71886 8.82212 9.87535 8.82212 10.0334C8.82212 10.1914 8.85329 10.3479 8.91384 10.4939C8.97439 10.6399 9.06314 10.7725 9.175 10.8842C9.28665 10.996 9.41926 11.0848 9.56525 11.1453C9.71124 11.2059 9.86773 11.2371 10.0258 11.2371C10.1838 11.2371 10.3403 11.2059 10.4863 11.1453C10.6323 11.0848 10.7649 10.996 10.8766 10.8842C11.0262 10.735 11.1338 10.549 11.1885 10.3449C11.2432 10.1408 11.2431 9.92589 11.1881 9.72187L13.0035 7.90645C13.0701 7.83984 13.0701 7.73027 13.0035 7.66367L12.3955 7.05566ZM9.52734 4.875H10.4727C10.5672 4.875 10.6445 4.79766 10.6445 4.70312V2.98438C10.6445 2.88984 10.5672 2.8125 10.4727 2.8125H9.52734C9.43281 2.8125 9.35547 2.88984 9.35547 2.98438V4.70312C9.35547 4.79766 9.43281 4.875 9.52734 4.875ZM15.1133 9.55859V10.5039C15.1133 10.5984 15.1906 10.6758 15.2852 10.6758H17.0039C17.0984 10.6758 17.1758 10.5984 17.1758 10.5039V9.55859C17.1758 9.46406 17.0984 9.38672 17.0039 9.38672H15.2852C15.1906 9.38672 15.1133 9.46406 15.1133 9.55859ZM15.3861 5.32187L14.718 4.65371C14.6857 4.62172 14.642 4.60378 14.5966 4.60378C14.5511 4.60378 14.5075 4.62172 14.4752 4.65371L13.2592 5.86973C13.2272 5.90203 13.2092 5.94565 13.2092 5.99111C13.2092 6.03657 13.2272 6.0802 13.2592 6.1125L13.9273 6.78066C13.9939 6.84727 14.1035 6.84727 14.1701 6.78066L15.3861 5.56465C15.4527 5.49805 15.4527 5.38848 15.3861 5.32187ZM5.5334 4.65371C5.5011 4.62172 5.45747 4.60378 5.41201 4.60378C5.36655 4.60378 5.32293 4.62172 5.29062 4.65371L4.62246 5.32187C4.59047 5.35418 4.57253 5.3978 4.57253 5.44326C4.57253 5.48872 4.59047 5.53235 4.62246 5.56465L5.83848 6.78066C5.90508 6.84727 6.01465 6.84727 6.08125 6.78066L6.74941 6.1125C6.81602 6.0459 6.81602 5.93633 6.74941 5.86973L5.5334 4.65371ZM4.62891 9.38672H2.91016C2.81562 9.38672 2.73828 9.46406 2.73828 9.55859V10.5039C2.73828 10.5984 2.81562 10.6758 2.91016 10.6758H4.62891C4.72344 10.6758 4.80078 10.5984 4.80078 10.5039V9.55859C4.80078 9.46406 4.72344 9.38672 4.62891 9.38672Z" fill="#2D3657"/>
</svg>
