<svg width="18" height="18" viewBox="0 0 18 18" fill="none" xmlns="http://www.w3.org/2000/svg">
<path d="M17.164 14.586H15.4453V12.8672C15.4453 12.7727 15.3679 12.6953 15.2734 12.6953H14.2422C14.1476 12.6953 14.0703 12.7727 14.0703 12.8672V14.586H12.3515C12.257 14.586 12.1797 14.6633 12.1797 14.7578V15.7891C12.1797 15.8836 12.257 15.961 12.3515 15.961H14.0703V17.6797C14.0703 17.7742 14.1476 17.8516 14.2422 17.8516H15.2734C15.3679 17.8516 15.4453 17.7742 15.4453 17.6797V15.961H17.164C17.2586 15.961 17.3359 15.8836 17.3359 15.7891V14.7578C17.3359 14.6633 17.2586 14.586 17.164 14.586ZM6.02439 8.70783C6.00506 8.52091 5.99432 8.33185 5.99432 8.14064C5.99432 7.79904 6.02654 7.46603 6.0867 7.14162C6.10174 7.06427 6.06092 6.98478 5.99002 6.95256C5.69783 6.8215 5.42928 6.64103 5.19725 6.4133C4.92384 6.1482 4.70869 5.82901 4.56553 5.47611C4.42237 5.12321 4.35435 4.74435 4.3658 4.36369C4.38514 3.67404 4.66229 3.01877 5.14568 2.52463C5.67635 1.98107 6.38963 1.68459 7.14803 1.69318C7.83338 1.69963 8.4951 1.96388 8.99568 2.43224C9.16541 2.59123 9.3115 2.7674 9.43396 2.95646C9.47693 3.02306 9.56072 3.05099 9.63377 3.02521C10.0119 2.89416 10.4115 2.80177 10.8219 2.7588C10.9422 2.74591 11.0109 2.61701 10.9572 2.50959C10.259 1.12814 8.8324 0.174235 7.1824 0.148453C4.80193 0.11193 2.81678 2.06486 2.81678 4.44533C2.81678 5.79455 3.43768 6.99767 4.41092 7.78615C3.72771 8.10197 3.09822 8.5381 2.55252 9.08381C1.37518 10.259 0.70916 11.8102 0.666191 13.4666C0.665618 13.4895 0.66964 13.5124 0.678021 13.5337C0.686401 13.5551 0.69897 13.5745 0.714988 13.5909C0.731005 13.6074 0.750147 13.6204 0.771285 13.6293C0.792423 13.6382 0.815129 13.6428 0.838067 13.6428H2.04334C2.13572 13.6428 2.21307 13.5697 2.21521 13.4774C2.25604 12.2313 2.76092 11.0647 3.64822 10.1795C4.27986 9.54787 5.0533 9.10959 5.89764 8.89689C5.97928 8.87326 6.03514 8.79377 6.02439 8.70783ZM15.7031 8.14064C15.7031 5.79025 13.8146 3.88029 11.4728 3.84377C9.09236 3.80724 7.10936 5.76017 7.10936 8.14064C7.10936 9.48986 7.7324 10.693 8.7035 11.4815C8.01322 11.8014 7.38483 12.2407 6.84725 12.7791C5.6699 13.9543 5.00389 15.5055 4.96092 17.1598C4.96034 17.1827 4.96437 17.2055 4.97275 17.2269C4.98113 17.2482 4.9937 17.2677 5.00971 17.2841C5.02573 17.3005 5.04487 17.3136 5.06601 17.3225C5.08715 17.3314 5.10986 17.336 5.13279 17.336H6.33592C6.4283 17.336 6.50564 17.2629 6.50779 17.1705C6.54861 15.9244 7.0535 14.7578 7.9408 13.8727C8.86678 12.9467 10.0957 12.4375 11.4062 12.4375C13.7781 12.4375 15.7031 10.5147 15.7031 8.14064ZM13.3506 10.085C12.8306 10.6049 12.141 10.8906 11.4062 10.8906C10.6715 10.8906 9.98182 10.6049 9.46189 10.085C9.20244 9.82688 8.99745 9.51933 8.85906 9.18055C8.72066 8.84176 8.65169 8.47864 8.65623 8.11271C8.66268 7.40802 8.94412 6.72697 9.43611 6.22209C9.95174 5.69357 10.6414 5.39923 11.3783 5.39064C12.1066 5.3842 12.8135 5.66779 13.3334 6.17697C13.8662 6.69904 14.1584 7.39728 14.1584 8.14064C14.1562 8.87541 13.8705 9.56505 13.3506 10.085Z" fill="#2D3657"/>
</svg>
